<svg id="download-on-the-app-store-apple-logo-svgrepo-com" xmlns="http://www.w3.org/2000/svg" xmlns:xlink="http://www.w3.org/1999/xlink" width="102" height="32" viewBox="0 0 102 32">
  <defs>
    <linearGradient id="linear-gradient" x1="-1.199" y1="2.436" x2="-1.199" y2="1.535" gradientUnits="objectBoundingBox">
      <stop offset="0" stop-color="#1a1a1a" stop-opacity="0.102"/>
      <stop offset="0.123" stop-color="#212121" stop-opacity="0.153"/>
      <stop offset="0.308" stop-color="#353535" stop-opacity="0.227"/>
      <stop offset="0.532" stop-color="#575757" stop-opacity="0.318"/>
      <stop offset="0.783" stop-color="#858585" stop-opacity="0.42"/>
      <stop offset="1" stop-color="#b3b3b3" stop-opacity="0.51"/>
    </linearGradient>
  </defs>
  <path id="Path_29" data-name="Path 29" d="M104.217,31.147a3.172,3.172,0,0,1-.849,2.174,2.813,2.813,0,0,1-2.049.9H6.464a2.992,2.992,0,0,1-2.9-3.073V6.638a3,3,0,0,1,2.9-3.077h94.854a2.992,2.992,0,0,1,2.9,3.077V31.147Z" transform="translate(-2.892 -2.891)" fill="#fff"/>
  <path id="Path_30" data-name="Path 30" d="M98.425,32H3.575A3.684,3.684,0,0,1,0,28.223V3.782A3.687,3.687,0,0,1,3.575,0H98.424A3.689,3.689,0,0,1,102,3.782v24.44A3.684,3.684,0,0,1,98.425,32Z" fill="#a6a6a6"/>
  <path id="Path_31" data-name="Path 31" d="M104.217,31.147a3.172,3.172,0,0,1-.849,2.174,2.813,2.813,0,0,1-2.049.9H6.464a2.992,2.992,0,0,1-2.9-3.073V6.638a3,3,0,0,1,2.9-3.077h94.854a2.992,2.992,0,0,1,2.9,3.077V31.147Z" transform="translate(-2.892 -2.891)"/>
  <path id="Path_32" data-name="Path 32" d="M64.254,35.092a4.365,4.365,0,0,1,2.08-3.663,4.473,4.473,0,0,0-3.522-1.9c-1.482-.156-2.919.886-3.674.886-.77,0-1.932-.871-3.185-.846a4.69,4.69,0,0,0-3.947,2.407c-1.707,2.954-.434,7.3,1.2,9.684.818,1.17,1.774,2.475,3.025,2.429,1.224-.05,1.681-.779,3.158-.779s1.893.779,3.169.75c1.314-.02,2.141-1.175,2.93-2.355a9.652,9.652,0,0,0,1.34-2.728,4.224,4.224,0,0,1-2.576-3.881Zm-2.41-7.138a4.3,4.3,0,0,0,.984-3.079A4.379,4.379,0,0,0,60,26.339,4.088,4.088,0,0,0,58.987,29.3,3.617,3.617,0,0,0,61.843,27.954Z" transform="translate(-41.56 -19.383)" fill="#fff"/>
  <path id="Path_33" data-name="Path 33" d="M302.731,0H252.108l19.828,32h30.795a3.681,3.681,0,0,0,3.562-3.78V3.782A3.682,3.682,0,0,0,302.731,0Z" transform="translate(-204.293)" fill="url(#linear-gradient)"/>
  <g id="Group_3" data-name="Group 3" transform="translate(32.325 15.44)">
    <path id="Path_34" data-name="Path 34" d="M178.275,82.186h-1.711l-.937-2.944H172.37l-.893,2.944h-1.665l3.228-10.022h1.993Zm-2.93-4.179L174.5,75.39q-.134-.4-.505-1.888h-.03q-.149.639-.476,1.888l-.833,2.617Zm11.215.477a4.091,4.091,0,0,1-1,2.914,2.938,2.938,0,0,1-2.228.952,2.231,2.231,0,0,1-2.064-1.025v3.792h-1.606V77.335q0-1.158-.06-2.375h1.412l.09,1.145h.03a2.857,2.857,0,0,1,4.573-.284A4,4,0,0,1,186.559,78.484Zm-1.636.059a2.979,2.979,0,0,0-.476-1.74,1.646,1.646,0,0,0-1.4-.713,1.67,1.67,0,0,0-1.078.394,1.827,1.827,0,0,0-.632,1.034,2.1,2.1,0,0,0-.075.489v1.206a1.933,1.933,0,0,0,.484,1.331,1.606,1.606,0,0,0,1.256.543,1.646,1.646,0,0,0,1.412-.7A3.075,3.075,0,0,0,184.923,78.543Zm9.95-.059a4.091,4.091,0,0,1-1,2.914,2.939,2.939,0,0,1-2.229.952,2.231,2.231,0,0,1-2.064-1.025v3.792h-1.606V77.335q0-1.158-.06-2.375h1.412l.09,1.145h.03a2.858,2.858,0,0,1,4.574-.284A4,4,0,0,1,194.873,78.484Zm-1.637.059a2.979,2.979,0,0,0-.477-1.74,1.643,1.643,0,0,0-1.4-.713,1.677,1.677,0,0,0-1.079.394,1.826,1.826,0,0,0-.631,1.034,2.145,2.145,0,0,0-.075.489v1.206a1.94,1.94,0,0,0,.483,1.331,1.609,1.609,0,0,0,1.258.543,1.644,1.644,0,0,0,1.412-.7A3.075,3.075,0,0,0,193.236,78.543Zm10.932.832a2.677,2.677,0,0,1-.891,2.082,3.95,3.95,0,0,1-2.731.877,4.767,4.767,0,0,1-2.6-.624l.371-1.338a4.469,4.469,0,0,0,2.32.625,2.189,2.189,0,0,0,1.412-.409,1.336,1.336,0,0,0,.507-1.092,1.4,1.4,0,0,0-.417-1.026,3.869,3.869,0,0,0-1.383-.773q-2.633-.982-2.633-2.871a2.534,2.534,0,0,1,.93-2.022,3.676,3.676,0,0,1,2.462-.788,4.866,4.866,0,0,1,2.276.476l-.4,1.309a3.98,3.98,0,0,0-1.926-.461,1.959,1.959,0,0,0-1.329.416,1.192,1.192,0,0,0-.4.908,1.227,1.227,0,0,0,.462.981,5.2,5.2,0,0,0,1.457.773,4.939,4.939,0,0,1,1.9,1.218A2.539,2.539,0,0,1,204.168,79.375Zm5.323-3.21h-1.77v3.509q0,1.339.937,1.337a2.822,2.822,0,0,0,.713-.075l.044,1.219a3.64,3.64,0,0,1-1.249.178,1.925,1.925,0,0,1-1.488-.581,2.847,2.847,0,0,1-.536-1.948V76.161h-1.055v-1.2h1.055V73.633l1.577-.476v1.8h1.77Zm7.971,2.349a3.963,3.963,0,0,1-.952,2.736,3.394,3.394,0,0,1-2.647,1.1,3.236,3.236,0,0,1-2.536-1.054,3.843,3.843,0,0,1-.945-2.661,3.931,3.931,0,0,1,.974-2.75,3.377,3.377,0,0,1,2.626-1.071,3.3,3.3,0,0,1,2.557,1.056,3.793,3.793,0,0,1,.923,2.645Zm-1.665.037a3.235,3.235,0,0,0-.43-1.7,1.59,1.59,0,0,0-1.443-.861,1.613,1.613,0,0,0-1.473.861,3.289,3.289,0,0,0-.431,1.735,3.226,3.226,0,0,0,.431,1.706,1.647,1.647,0,0,0,2.9-.014A3.248,3.248,0,0,0,215.8,78.55Zm6.887-2.179a2.8,2.8,0,0,0-.506-.044,1.516,1.516,0,0,0-1.309.64,2.41,2.41,0,0,0-.4,1.427v3.792h-1.606V77.235q0-1.138-.047-2.275h1.4l.059,1.383h.044a2.479,2.479,0,0,1,.8-1.145,1.942,1.942,0,0,1,1.161-.387,2.579,2.579,0,0,1,.4.029Zm7.182,1.859a3.764,3.764,0,0,1-.059.728h-4.818a2.1,2.1,0,0,0,.7,1.637,2.391,2.391,0,0,0,1.576.5,5.33,5.33,0,0,0,1.949-.341l.252,1.114a6.028,6.028,0,0,1-2.423.447,3.513,3.513,0,0,1-2.641-.988,3.653,3.653,0,0,1-.959-2.654,4.139,4.139,0,0,1,.893-2.72,3.078,3.078,0,0,1,2.527-1.159,2.694,2.694,0,0,1,2.366,1.159A3.9,3.9,0,0,1,229.867,78.231Zm-1.531-.416a2.173,2.173,0,0,0-.312-1.234,1.4,1.4,0,0,0-1.279-.67,1.523,1.523,0,0,0-1.278.654,2.4,2.4,0,0,0-.475,1.249Z" transform="translate(-169.812 -72.016)" fill="#fff"/>
  </g>
  <g id="Group_4" data-name="Group 4" transform="translate(33.265 5.309)">
    <path id="Path_35" data-name="Path 35" d="M175.961,31.444a10.257,10.257,0,0,1-1.155-.059V26.54a8.745,8.745,0,0,1,1.36-.1c1.842,0,2.69.906,2.69,2.383C178.856,30.524,177.854,31.444,175.961,31.444Zm.27-4.385a3.223,3.223,0,0,0-.636.051v3.683a4.169,4.169,0,0,0,.533.022,1.745,1.745,0,0,0,1.894-1.973A1.607,1.607,0,0,0,176.231,27.059Zm5.268,4.422a1.691,1.691,0,0,1-1.711-1.827,1.73,1.73,0,0,1,1.769-1.878,1.677,1.677,0,0,1,1.711,1.82,1.74,1.74,0,0,1-1.769,1.885Zm.03-3.128c-.57,0-.936.533-.936,1.279s.373,1.264.928,1.264.928-.57.928-1.279S182.084,28.353,181.529,28.353Zm7.658-.5L188.077,31.4h-.724l-.46-1.542a11.689,11.689,0,0,1-.285-1.147h-.015a7.685,7.685,0,0,1-.285,1.147l-.49,1.542h-.731l-1.046-3.551h.811l.4,1.688q.142.6.241,1.14h.015c.058-.3.153-.672.292-1.133l.5-1.7h.643l.483,1.659c.117.4.212.8.285,1.17h.021a10.222,10.222,0,0,1,.241-1.17l.432-1.659h.775Zm4.09,3.551h-.789V29.361c0-.628-.241-.943-.716-.943a.82.82,0,0,0-.789.87V31.4h-.789V28.864c0-.314-.008-.651-.029-1.016h.695l.037.548h.022a1.276,1.276,0,0,1,1.126-.621c.746,0,1.235.57,1.235,1.5V31.4Zm2.177,0h-.79V26.219h.79Zm2.878.081a1.691,1.691,0,0,1-1.711-1.827,1.73,1.73,0,0,1,1.769-1.878A1.677,1.677,0,0,1,200.1,29.6a1.74,1.74,0,0,1-1.769,1.885Zm.029-3.128c-.57,0-.936.533-.936,1.279s.374,1.264.927,1.264.928-.57.928-1.279-.364-1.264-.92-1.264Zm4.852,3.048-.057-.409h-.021a1.213,1.213,0,0,1-1.039.489,1.033,1.033,0,0,1-1.088-1.045c0-.877.76-1.33,2.076-1.33V29.04c0-.468-.248-.7-.737-.7a1.663,1.663,0,0,0-.928.264l-.16-.519a2.271,2.271,0,0,1,1.22-.307c.928,0,1.4.489,1.4,1.469v1.308a5.363,5.363,0,0,0,.051.848h-.712Zm-.108-1.769c-.877,0-1.317.212-1.317.716a.5.5,0,0,0,.542.555.756.756,0,0,0,.775-.723Zm4.6,1.769-.037-.57h-.022a1.191,1.191,0,0,1-1.14.651,1.619,1.619,0,0,1-1.491-1.813,1.685,1.685,0,0,1,1.556-1.893,1.067,1.067,0,0,1,1,.483h.016V26.219h.79v4.224c0,.343.008.665.029.957h-.7Zm-.117-2.09a.859.859,0,0,0-.832-.921c-.585,0-.943.519-.943,1.249s.371,1.206.927,1.206a.886.886,0,0,0,.847-.943v-.592Zm5.8,2.17a1.69,1.69,0,0,1-1.71-1.827,1.73,1.73,0,0,1,1.769-1.878,1.677,1.677,0,0,1,1.711,1.82,1.739,1.739,0,0,1-1.769,1.885Zm.029-3.128c-.569,0-.935.533-.935,1.279s.373,1.264.927,1.264.928-.57.928-1.279S213.978,28.353,213.421,28.353Zm5.985,3.048h-.79V29.361c0-.628-.241-.943-.716-.943a.819.819,0,0,0-.789.87V31.4h-.79V28.864c0-.314-.008-.651-.029-1.016h.695l.037.548h.022a1.276,1.276,0,0,1,1.125-.621c.746,0,1.236.57,1.236,1.5Zm5.311-2.96h-.869v1.725c0,.439.152.658.459.658a1.555,1.555,0,0,0,.35-.037l.022.6a1.749,1.749,0,0,1-.612.088c-.622,0-.994-.343-.994-1.243V28.441h-.518v-.592h.518V27.2l.775-.234v.884h.869v.593ZM228.9,31.4h-.789V29.376c0-.636-.24-.957-.716-.957a.774.774,0,0,0-.79.84V31.4h-.789V26.219h.789v2.133h.016a1.2,1.2,0,0,1,1.068-.578c.752,0,1.211.584,1.211,1.513V31.4Zm4.282-1.586h-2.369a1.019,1.019,0,0,0,1.119,1.052,2.669,2.669,0,0,0,.957-.168l.123.548a2.966,2.966,0,0,1-1.192.219,1.649,1.649,0,0,1-1.769-1.79,1.735,1.735,0,0,1,1.68-1.908,1.492,1.492,0,0,1,1.477,1.688,1.521,1.521,0,0,1-.027.358Zm-.724-.563c0-.548-.276-.935-.781-.935a.936.936,0,0,0-.863.935h1.644Z" transform="translate(-174.806 -26.219)" fill="#fff"/>
  </g>
</svg>
