<svg width="20" height="20" viewBox="0 0 20 20" fill="none" xmlns="http://www.w3.org/2000/svg">
<mask id="mask0_96_122" style="mask-type:luminance" maskUnits="userSpaceOnUse" x="0" y="0" width="20" height="20">
<path d="M0 0H20V19.948H0V0Z" fill="white"/>
</mask>
<g mask="url(#mask0_96_122)">
<mask id="mask1_96_122" style="mask-type:luminance" maskUnits="userSpaceOnUse" x="0" y="0" width="20" height="20">
<path d="M0 0H20V19.948H0V0Z" fill="white"/>
</mask>
<g mask="url(#mask1_96_122)">
<path d="M0 9.974C0 14.2321 2.67583 17.8676 6.44167 19.298C6.35 18.5192 6.2525 17.2351 6.4625 16.3341C6.64333 15.5594 7.63 11.3986 7.63 11.3986C7.63 11.3986 7.3325 10.8043 7.3325 9.92413C7.3325 8.5444 8.13417 7.51375 9.13333 7.51375C9.98333 7.51375 10.3933 8.14959 10.3933 8.91177C10.3933 9.76372 9.84917 11.0371 9.56833 12.2182C9.33417 13.2064 10.0658 14.0126 11.0425 14.0126C12.8117 14.0126 14.1725 12.1517 14.1725 9.46533C14.1725 7.08736 12.4592 5.42586 10.0133 5.42586C7.18167 5.42586 5.51917 7.5445 5.51917 9.73463C5.51917 10.5882 5.84833 11.5025 6.26 12.0004C6.2951 12.038 6.3199 12.084 6.33201 12.1339C6.34412 12.1838 6.34314 12.236 6.32917 12.2855C6.25333 12.5997 6.085 13.2737 6.0525 13.4117C6.00833 13.5929 5.90833 13.632 5.71917 13.5439C4.47583 12.967 3.69917 11.1543 3.69917 9.69806C3.69917 6.56539 5.98 3.68955 10.2758 3.68955C13.7292 3.68955 16.4133 6.14399 16.4133 9.42377C16.4133 12.8457 14.2508 15.6002 11.2475 15.6002C10.2383 15.6002 9.29083 15.0765 8.96583 14.459C8.96583 14.459 8.46667 16.3557 8.34583 16.8195C8.11083 17.7205 7.45917 18.8608 7.055 19.5083C7.98667 19.7942 8.975 19.948 10 19.948C15.5225 19.948 20 15.4821 20 9.974C20 4.46586 15.5225 0 10 0C4.4775 0 0 4.46586 0 9.974Z" fill="white"/>
</g>
</g>
</svg>
