<svg width="20" height="20" viewBox="0 0 20 20" fill="none" xmlns="http://www.w3.org/2000/svg">
<path d="M11.028 0.00123035C11.7577 -0.00156977 12.4874 0.00576409 13.2169 0.0232297L13.4109 0.0302294C13.6349 0.0382291 13.8559 0.0482288 14.1229 0.0602284C15.1868 0.110227 15.9128 0.278221 16.5497 0.525213C17.2097 0.779204 17.7657 1.12319 18.3216 1.67917C18.83 2.17876 19.2234 2.78308 19.4746 3.45011C19.7216 4.08709 19.8896 4.81407 19.9396 5.87803C19.9516 6.14402 19.9616 6.36601 19.9696 6.59001L19.9756 6.784C19.9933 7.51317 20.001 8.24255 19.9986 8.97193L19.9996 9.7179V11.0279C20.002 11.7576 19.9943 12.4873 19.9766 13.2168L19.9706 13.4108C19.9626 13.6348 19.9526 13.8558 19.9406 14.1227C19.8906 15.1867 19.7206 15.9127 19.4746 16.5497C19.2242 17.2174 18.8307 17.8222 18.3216 18.3216C17.8216 18.8299 17.217 19.2233 16.5497 19.4746C15.9128 19.7216 15.1868 19.8896 14.1229 19.9396C13.8559 19.9516 13.6349 19.9615 13.4109 19.9696L13.2169 19.9756C12.4874 19.9933 11.7577 20.001 11.028 19.9986L10.282 19.9995H8.97312C8.24342 20.002 7.51372 19.9943 6.78423 19.9766L6.59024 19.9706C6.35286 19.9619 6.11554 19.9519 5.87827 19.9406C4.81433 19.8906 4.08837 19.7206 3.4504 19.4746C2.78312 19.2239 2.1787 18.8304 1.67949 18.3216C1.17056 17.8219 0.776761 17.2172 0.52555 16.5497C0.278563 15.9127 0.110571 15.1867 0.0605738 14.1227C0.0494373 13.8855 0.0394377 13.6481 0.0305754 13.4108L0.0255758 13.2168C0.00714031 12.4873 -0.00119349 11.7576 0.000576971 11.0279V8.97193C-0.00221385 8.24255 0.00511989 7.51317 0.0225759 6.784L0.0295755 6.59001C0.0375751 6.36601 0.0475746 6.14402 0.059574 5.87803C0.109571 4.81307 0.277563 4.08809 0.52455 3.45011C0.77591 2.78276 1.17048 2.1786 1.68049 1.68017C2.17936 1.17094 2.7834 0.776777 3.4504 0.525213C4.08837 0.278221 4.81333 0.110227 5.87827 0.0602284L6.59024 0.0302294L6.78423 0.0252297C7.51337 0.00680315 8.24274 -0.0015308 8.97212 0.00023046L11.028 0.00123035ZM10.0001 5.00106C9.3376 4.99169 8.67989 5.11408 8.06514 5.36112C7.45039 5.60815 6.89087 5.97491 6.41909 6.44007C5.94732 6.90523 5.57269 7.45951 5.31699 8.07072C5.06129 8.68192 4.92962 9.33785 4.92962 10.0004C4.92962 10.6629 5.06129 11.3189 5.31699 11.9301C5.57269 12.5413 5.94732 13.0956 6.41909 13.5607C6.89087 14.0259 7.45039 14.3926 8.06514 14.6397C8.67989 14.8867 9.3376 15.0091 10.0001 14.9997C11.3261 14.9997 12.5978 14.473 13.5354 13.5353C14.4731 12.5977 14.9998 11.3259 14.9998 9.99989C14.9998 8.67385 14.4731 7.40213 13.5354 6.46448C12.5978 5.52683 11.3261 5.00106 10.0001 5.00106ZM10.0001 7.00099C10.3986 6.99365 10.7945 7.06579 11.1648 7.21319C11.5351 7.3606 11.8723 7.58031 12.1567 7.85951C12.4412 8.1387 12.6671 8.47177 12.8214 8.83927C12.9756 9.20677 13.0551 9.60132 13.0552 9.99988C13.0552 10.3984 12.9759 10.793 12.8217 11.1606C12.6676 11.5281 12.4418 11.8613 12.1574 12.1406C11.8731 12.4198 11.536 12.6397 11.1657 12.7872C10.7955 12.9347 10.3996 13.007 10.0011 12.9998C9.20546 12.9998 8.44243 12.6837 7.87985 12.1211C7.31727 11.5585 7.00122 10.7955 7.00122 9.99989C7.00122 9.20427 7.31727 8.44123 7.87985 7.87864C8.44243 7.31605 9.20546 6.99999 10.0011 6.99999L10.0001 7.00099ZM15.2498 3.50111C14.9272 3.51402 14.6221 3.65126 14.3984 3.88407C14.1748 4.11688 14.0498 4.42721 14.0498 4.75007C14.0498 5.07292 14.1748 5.38326 14.3984 5.61607C14.6221 5.84888 14.9272 5.98611 15.2498 5.99903C15.5813 5.99903 15.8992 5.86733 16.1336 5.63292C16.368 5.39851 16.4997 5.08058 16.4997 4.74907C16.4997 4.41756 16.368 4.09963 16.1336 3.86522C15.8992 3.6308 15.5813 3.49911 15.2498 3.49911V3.50111Z" fill="white"/>
</svg>
